<svg width="128" height="128" viewBox="0 0 128 128" fill="none" xmlns="http://www.w3.org/2000/svg">
<rect width="128" height="128" rx="15" fill="white"/>
<path fill-rule="evenodd" clip-rule="evenodd" d="M87.259 100.139C87.428 99.814 87.59 99.527 87.728 99.23C87.815 99.04 87.949 99.002 88.138 99.007C89.271 99.039 90.404 99.074 91.538 99.085C92.501 99.095 93.466 99.077 94.43 99.066C95.516 99.053 96.602 98.996 97.687 99.027C99.132 99.069 100.54 99.352 101.847 99.995C103.408 100.764 104.589 101.935 105.394 103.478C105.9 104.456 106.216 105.522 106.325 106.618C106.497 108.226 106.384 109.797 105.874 111.335C105.242 113.241 104.042 114.7 102.375 115.793C101.092 116.634 99.685 117.131 98.177 117.415C96.581 117.716 94.98 117.619 93.379 117.624C91.623 117.631 89.868 117.593 88.112 117.573C87.805 117.57 87.761 117.512 87.842 117.219L87.917 116.949C88.088 116.411 88.18 116.387 88.726 116.297C89.113 116.236 89.4832 116.095 89.813 115.884C89.997 115.762 90.073 115.444 90.145 115.199C90.207 114.985 90.21 114.75 90.212 114.524C90.237 111.099 90.263 107.675 90.277 104.252C90.2808 103.386 90.2592 102.521 90.212 101.656C90.178 101.051 89.855 100.637 89.135 100.494C88.575 100.383 88.011 100.297 87.448 100.198L87.259 100.139ZM103.335 108.432C103.259 107.75 103.222 107.062 103.1 106.39C102.808 104.777 102.102 103.372 100.862 102.271C98.857 100.492 96.443 100.218 93.913 100.43C93.337 100.478 93.213 100.675 93.204 101.267C93.19 102.107 93.176 102.947 93.175 103.787C93.171 106.451 93.171 109.115 93.175 111.779C93.176 112.537 93.184 113.295 93.206 114.051C93.23 114.825 93.511 115.48 94.269 115.78C95.464 116.253 96.721 116.309 97.975 116.116C99.978 115.809 101.379 114.642 102.319 112.893C103.063 111.505 103.273 109.99 103.335 108.432ZM108.204 117.503C108.18 117.088 108.35 116.745 108.56 116.43C108.617 116.345 108.813 116.349 108.948 116.322L110.094 116.095C110.499 116.009 110.712 115.737 110.769 115.34C110.807 115.078 110.843 114.813 110.846 114.548C110.873 112.451 110.893 110.354 110.905 108.257C110.915 106.157 110.907 104.057 110.907 101.957L110.898 101.556C110.857 100.881 110.531 100.531 109.861 100.432L108.408 100.211C108.229 100.187 108.164 100.101 108.229 99.942C108.341 99.671 108.448 99.39 108.606 99.146C108.665 99.056 108.864 99.021 108.998 99.024C109.692 99.034 110.386 99.086 111.08 99.085L117.121 99.049C118.285 99.048 119.409 99.251 120.453 99.808C121.602 100.42 122.245 101.367 122.429 102.657C122.621 104.012 122.21 105.154 121.22 106.061C120.813 106.435 120.286 106.679 119.814 106.983L119.66 107.079C120.098 107.24 120.515 107.379 120.921 107.545C122.109 108.032 123.054 108.793 123.554 110.008C123.949 110.967 123.949 111.967 123.715 112.961C123.351 114.517 122.326 115.552 120.993 116.335C119.742 117.07 118.388 117.498 116.946 117.57C115.616 117.637 114.28 117.612 112.947 117.627L112.175 117.631C110.89 117.601 109.606 117.569 108.321 117.535L108.204 117.503ZM113.741 111.414H113.754C113.754 112.072 113.745 112.73 113.757 113.388C113.765 113.814 113.75 114.252 113.842 114.662C113.98 115.275 114.26 115.828 114.948 116.004C115.868 116.246 116.829 116.288 117.766 116.128C118.943 115.923 119.882 115.333 120.397 114.212C120.779 113.379 120.836 112.496 120.705 111.594C120.531 110.406 119.9 109.544 118.851 108.979C118.163 108.608 117.429 108.381 116.647 108.351C115.771 108.318 114.894 108.316 114.018 108.289C113.772 108.282 113.738 108.407 113.739 108.609C113.744 109.543 113.741 110.478 113.741 111.414ZM115.606 106.939C116.085 106.915 116.627 106.908 117.166 106.854C118.198 106.751 118.925 106.232 119.304 105.245C119.497 104.744 119.489 104.228 119.494 103.707C119.509 102.35 118.717 101.238 117.428 100.778C116.433 100.423 115.407 100.417 114.375 100.445C113.957 100.456 113.77 100.639 113.764 101.06L113.702 106.549C113.699 106.767 113.793 106.861 114.005 106.868L115.606 106.939Z" fill="#94795D"/>
<path fill-rule="evenodd" clip-rule="evenodd" d="M10.543 116.448L10.47 117.392C9.79 117.392 9.163 117.387 8.536 117.394C7.355 117.406 6.174 117.425 4.992 117.442L4.878 117.449C4.709 117.429 4.402 117.429 4.394 117.379C4.344 117.098 4.36 116.803 4.373 116.512C4.374 116.479 4.489 116.437 4.556 116.421L5.475 116.216C6.048 116.067 6.25 115.82 6.277 115.228C6.308 114.561 6.339 113.893 6.342 113.226C6.351 111.584 6.341 109.944 6.348 108.302C6.349 107.918 6.216 107.632 5.858 107.476C5.4326 107.287 5.00421 107.105 4.573 106.93C4.369 106.848 4.104 106.803 4.128 106.529C4.152 106.25 4.409 106.177 4.651 106.122C5.653 105.893 6.656 105.67 7.655 105.426C7.977 105.347 8.285 105.214 8.67 105.08C8.69 105.288 8.727 105.486 8.723 105.684L8.664 106.625C8.663 106.731 8.718 106.873 8.797 106.932C8.845 106.969 9.006 106.902 9.086 106.84C9.94 106.19 10.844 105.629 11.875 105.302C13.472 104.795 14.843 105.265 15.803 106.642C16.141 107.127 16.142 107.127 16.611 106.788C17.416 106.203 18.258 105.687 19.2 105.347C21.268 104.6 23.255 105.548 23.974 107.631C24.236 108.387 24.336 109.168 24.334 109.966L24.315 115.264C24.314 115.701 24.459 115.95 24.875 116.086C25.342 116.239 25.826 116.344 26.352 116.482L26.23 117.393C25.632 117.393 25.082 117.389 24.532 117.394C23.188 117.406 21.844 117.413 20.501 117.444C20.267 117.45 20.206 117.392 20.194 117.173C20.155 116.472 20.149 116.473 20.809 116.315L21.031 116.258C21.676 116.082 21.891 115.884 21.896 115.23C21.911 113.352 21.95 111.469 21.855 109.595C21.756 107.651 20.213 106.616 18.329 107.114C17.7209 107.281 17.1483 107.556 16.639 107.928C16.464 108.053 16.431 108.197 16.445 108.416C16.498 109.244 16.531 110.073 16.538 110.902C16.55 112.353 16.532 113.804 16.538 115.256C16.54 115.844 16.741 116.069 17.322 116.205L18.185 116.404L18.345 116.44C18.357 116.716 18.368 116.992 18.355 117.268C18.347 117.441 18.213 117.456 18.063 117.453C17.224 117.432 16.384 117.404 15.545 117.406C14.524 117.408 13.504 117.437 12.484 117.455H12.244C12.244 117.162 12.23 116.882 12.254 116.603C12.259 116.536 12.377 116.442 12.458 116.421L13.464 116.208C13.891 116.103 14.095 115.884 14.119 115.45C14.233 113.44 14.315 111.429 14.126 109.42C14.0799 109.023 13.9698 108.637 13.8 108.275C13.285 107.137 12.126 106.662 10.789 107.004C10.154 107.166 9.581 107.457 9.039 107.824C8.92081 107.897 8.82372 107.999 8.75741 108.121C8.69109 108.243 8.65786 108.38 8.661 108.519C8.661 110.524 8.668 112.529 8.674 114.533L8.685 115.306C8.697 115.845 8.926 116.129 9.461 116.245C9.805 116.323 10.153 116.376 10.543 116.448Z" fill="#50382B"/>
<path fill-rule="evenodd" clip-rule="evenodd" d="M71.001 105.285C71.156 106.039 71.153 106.717 70.599 107.231C70.049 107.742 69.353 107.57 68.674 107.456C68.737 107.814 68.807 108.118 68.841 108.426C69.088 110.715 68.103 112.414 65.98 113.385C65.178 113.751 64.327 113.887 63.458 113.957C63.026 113.991 62.648 114.321 62.607 114.676C62.565 115.036 62.791 115.406 63.243 115.514C63.776 115.641 64.332 115.677 64.879 115.74C66.053 115.874 67.24 115.935 68.4 116.145C70.154 116.461 71.133 117.992 70.824 119.754C70.549 121.322 69.641 122.463 68.375 123.338C66.242 124.816 63.902 125.248 61.41 124.494C59.985 124.062 58.98 123.125 58.633 121.609C58.459 120.85 58.644 120.163 59.215 119.648C59.894 119.038 60.633 118.494 61.344 117.918L61.574 117.687L61.31 117.502C60.585 117.158 60.005 116.687 59.78 115.869C59.703 115.592 59.783 115.41 60.018 115.268C60.418 115.027 60.816 114.782 61.211 114.533C61.397 114.417 61.581 114.297 61.754 114.163C61.99 113.983 61.969 113.849 61.687 113.745C61.031 113.503 60.448 113.152 59.996 112.612C59.241 111.711 59.027 110.638 59.089 109.505C59.186 107.735 60.147 106.569 61.709 105.819C63.566 104.928 65.429 104.872 67.322 105.684C68.022 105.984 68.76 106.048 69.511 105.996C70.072 105.956 70.562 105.744 71.001 105.285ZM64.158 117.966C62.764 117.954 62.327 118.126 61.509 118.959C60.593 119.893 60.598 121.188 61.512 122.126C62.206 122.837 63.072 123.17 64.035 123.27C65.16 123.386 66.268 123.339 67.29 122.776C68.38 122.173 68.922 121.053 68.677 119.925C68.474 118.994 67.788 118.568 66.953 118.323C66.003 118.045 65.021 117.992 64.158 117.966ZM61.42 109.058C61.471 109.445 61.492 109.837 61.578 110.216C61.801 111.198 62.228 112.061 63.205 112.498C64.352 113.013 65.817 112.792 66.319 111.182C66.662 110.111 66.622 108.953 66.206 107.908C66.0297 107.43 65.7123 107.017 65.296 106.724C64.3 106.029 62.503 105.937 61.771 107.473C61.533 107.972 61.44 108.503 61.42 109.058Z" fill="#4F382B"/>
<path fill-rule="evenodd" clip-rule="evenodd" d="M47.35 105.038C47.387 105.209 47.461 105.403 47.463 105.598C47.466 105.969 47.426 106.34 47.405 106.711V107.033L47.719 106.793C48.579 106.085 49.503 105.482 50.579 105.157C52.521 104.572 54.461 105.635 55.094 107.613C55.334 108.365 55.429 109.138 55.438 109.924C55.458 111.67 55.47 113.416 55.488 115.162C55.494 115.789 55.566 115.901 56.159 116.082C56.4964 116.183 56.8407 116.259 57.189 116.311C57.38 116.341 57.462 116.416 57.452 116.603L57.454 116.775C57.447 117.498 57.397 117.531 56.696 117.529C55.018 117.526 53.341 117.536 51.663 117.55C51.163 117.554 51.162 117.569 51.112 117.075L51.102 116.791C51.133 116.365 51.143 116.369 51.562 116.307C51.844 116.265 52.124 116.2 52.399 116.128C52.682 116.055 52.818 115.846 52.856 115.566C52.875 115.424 52.9 115.282 52.899 115.14C52.875 113.232 52.906 111.322 52.802 109.417C52.718 107.876 51.542 106.958 49.995 107.063C49.2493 107.115 48.5325 107.372 47.924 107.806C47.511 108.095 47.428 108.512 47.43 108.961C47.438 110.745 47.455 112.529 47.474 114.314C47.478 114.705 47.489 115.096 47.526 115.484C47.565 115.908 47.714 116.079 48.13 116.171C48.528 116.259 48.934 116.31 49.359 116.381L49.395 116.709C49.409 117.474 49.329 117.531 48.586 117.528C46.851 117.521 45.116 117.532 43.382 117.551C43.109 117.555 42.993 117.469 43 117.203L42.996 117.089C42.951 116.4 42.971 116.374 43.623 116.262L43.931 116.2C44.637 116.041 44.818 115.853 44.828 115.136C44.861 112.865 44.873 110.595 44.896 108.324C44.899 107.998 44.776 107.745 44.472 107.61C44.0454 107.423 43.6163 107.242 43.185 107.066C42.947 106.968 42.675 106.906 42.666 106.577C42.66 106.345 42.908 106.14 43.247 106.071C43.928 105.933 44.615 105.818 45.288 105.649C45.958 105.482 46.616 105.258 47.35 105.038Z" fill="#4F372B"/>
<path fill-rule="evenodd" clip-rule="evenodd" d="M84.865 110.97C84.833 113.091 84.282 114.806 82.782 116.093C80.882 117.726 77.918 118.281 75.495 117.06C74.461 116.539 73.701 115.74 73.206 114.703C72.447 113.108 72.257 111.431 72.653 109.713C73.045 108.014 74.074 106.783 75.614 105.986C77.198 105.167 78.866 104.847 80.625 105.277C82.85 105.82 84.449 107.634 84.767 109.944C84.824 110.349 84.846 110.759 84.865 110.97ZM82.288 112.119L82.202 112.109C82.202 111.909 82.213 111.709 82.2 111.509C82.127 110.263 81.847 109.076 81.125 108.033C80.44 107.045 79.507 106.462 78.293 106.377C76.934 106.281 75.792 107.041 75.391 108.429C74.789 110.513 74.993 112.544 76.051 114.453C76.512 115.285 77.195 115.899 78.11 116.222C79.903 116.853 81.493 116.036 81.96 114.2C82.132 113.522 82.182 112.813 82.288 112.119Z" fill="#4F382B"/>
<path fill-rule="evenodd" clip-rule="evenodd" d="M40.819 111.134C40.782 112.656 40.423 114.063 39.483 115.286C38.476 116.596 37.092 117.296 35.518 117.591C33.657 117.939 31.909 117.623 30.414 116.374C29.704 115.78 29.219 115.019 28.899 114.153C28.374 112.733 28.243 111.278 28.566 109.795C28.911 108.208 29.807 106.995 31.196 106.181C32.802 105.242 34.535 104.823 36.386 105.245C38.766 105.789 40.14 107.34 40.648 109.688C40.75 110.162 40.764 110.652 40.819 111.134ZM38.213 112.138L38.144 112.128V111.842C38.105 110.446 37.832 109.116 36.999 107.956C36.382 107.095 35.556 106.555 34.497 106.404C32.771 106.158 31.643 107.182 31.269 108.573C30.781 110.39 30.934 112.185 31.689 113.908C32.16 114.982 32.904 115.819 34.047 116.225C35.829 116.858 37.443 116.02 37.894 114.191C38.06 113.522 38.11 112.824 38.213 112.138Z" fill="#4F372B"/>
<path fill-rule="evenodd" clip-rule="evenodd" d="M82.362 33.544C83.589 37.091 84.471 40.712 84.762 44.464C85.122 49.12 84.958 53.744 83.976 58.323L83.85 58.689C83.542 58.69 83.228 58.651 82.927 58.698C80.384 59.098 77.844 59.512 75.303 59.924C72.676 60.35 70.047 60.759 67.425 61.213C66.496 61.373 65.346 61.182 64.971 62.466L64.791 62.527L64.918 54.849L64.789 36.323L66.013 36.113C68.014 35.786 70.015 35.453 72.019 35.134C74.409 34.755 76.801 34.385 79.193 34.015C80.249 33.853 81.306 33.702 82.362 33.544Z" fill="#439934"/>
<path fill-rule="evenodd" clip-rule="evenodd" d="M62.265 84.911C60.974 83.801 59.638 82.74 58.401 81.572C51.743 75.292 46.872 67.899 44.473 58.986C43.812 56.534 43.372 54.041 43.23 51.507C43.13 49.733 42.987 47.944 43.113 46.179C43.446 41.486 44.125 36.838 45.501 32.317L45.577 32.212C45.711 32.39 45.903 32.548 45.971 32.749C47.315 36.705 48.648 40.665 49.975 44.628C54.144 57.079 58.308 69.533 62.484 81.982C62.566 82.225 62.777 82.424 62.929 82.643L62.265 84.911Z" fill="#45A538"/>
<path fill-rule="evenodd" clip-rule="evenodd" d="M82.362 33.544C81.305 33.701 80.248 33.853 79.193 34.015C76.801 34.385 74.409 34.755 72.019 35.134C70.016 35.452 68.015 35.785 66.013 36.113L64.789 36.323L64.779 35.525C64.738 34.869 64.67 34.213 64.661 33.557L64.524 21.003C64.492 18.384 64.444 15.765 64.391 13.147C64.364 11.5198 64.317 9.89303 64.25 8.267C64.21 7.394 64.069 6.525 64.013 5.652C63.98 5.15 64.024 4.644 64.035 4.14C64.659 5.349 65.27 6.567 65.911 7.767C66.924 9.664 68.539 11.062 69.994 12.587C75.74 18.618 79.819 25.626 82.362 33.544Z" fill="#46A037"/>
<path fill-rule="evenodd" clip-rule="evenodd" d="M64.792 62.527L64.972 62.466C65.347 61.182 66.497 61.373 67.426 61.213C70.048 60.759 72.677 60.35 75.304 59.924C77.845 59.513 80.385 59.099 82.928 58.698C83.229 58.651 83.543 58.69 83.851 58.689C83.376 60.385 83.002 62.118 82.399 63.767C81.714 65.637 80.886 67.463 80.007 69.253C78.6903 71.9223 77.0612 74.4259 75.154 76.711C73.688 78.473 72.054 80.104 70.417 81.713C69.511 82.602 68.445 83.327 67.451 84.127L67.193 83.951L66.266 83.159L65.307 81.055C64.6518 78.6015 64.2942 76.078 64.242 73.539L64.26 73.111L64.391 71.257C64.434 70.624 64.492 69.992 64.519 69.359C64.615 67.083 64.701 64.805 64.792 62.527Z" fill="#409433"/>
<path fill-rule="evenodd" clip-rule="evenodd" d="M64.792 62.527C64.702 64.805 64.616 67.084 64.519 69.362C64.492 69.996 64.435 70.628 64.391 71.26L63.807 71.481C62.509 67.66 61.21 63.879 59.94 60.089C57.839 53.818 55.764 47.538 53.666 41.265C51.9718 36.2023 50.2658 31.1437 48.548 26.089C48.467 25.853 48.237 25.667 48.077 25.458L51.817 18.581C51.946 18.804 52.115 19.013 52.196 19.253C53.926 24.373 55.653 29.494 57.365 34.62C59.593 41.29 61.806 47.963 64.032 54.634C64.121 54.9 64.267 55.146 64.407 55.445L64.919 54.849L64.792 62.527Z" fill="#4FAA41"/>
<path fill-rule="evenodd" clip-rule="evenodd" d="M48.076 25.458C48.237 25.667 48.467 25.853 48.547 26.089C50.265 31.1436 51.971 36.2023 53.665 41.265C55.763 47.538 57.838 53.818 59.939 60.089C61.209 63.879 62.508 67.659 63.806 71.481L64.39 71.26L64.259 73.114L64.14 73.541C63.937 75.57 63.766 77.603 63.518 79.628C63.394 80.643 63.129 81.639 62.928 82.643C62.777 82.424 62.565 82.225 62.483 81.982C58.306 69.533 54.143 57.079 49.974 44.628C48.6476 40.6656 47.3129 36.7059 45.97 32.749C45.902 32.548 45.71 32.39 45.576 32.212L48.076 25.458Z" fill="#4AA73C"/>
<path fill-rule="evenodd" clip-rule="evenodd" d="M64.918 54.849L64.406 55.445C64.266 55.146 64.12 54.9 64.031 54.634C61.805 47.963 59.592 41.29 57.364 34.62C55.65 29.4946 53.927 24.3723 52.195 19.253C52.114 19.013 51.945 18.804 51.816 18.581L56.441 12.497C56.587 12.691 56.795 12.864 56.87 13.083C58.154 16.843 59.426 20.606 60.692 24.372C61.874 27.89 63.038 31.412 64.234 34.924C64.314 35.159 64.593 35.325 64.779 35.525L64.789 36.323L64.918 54.849Z" fill="#57AE47"/>
<path fill-rule="evenodd" clip-rule="evenodd" d="M64.779 35.525C64.592 35.326 64.314 35.16 64.234 34.924C63.039 31.412 61.874 27.89 60.692 24.372C59.427 20.606 58.153 16.843 56.87 13.083C56.795 12.864 56.587 12.691 56.441 12.497C57.945 11.024 59.402 9.49801 60.967 8.09301C62.358 6.84501 63.476 5.50701 63.528 3.53401L63.638 3.14101L64.034 4.13901C64.024 4.64301 63.979 5.14901 64.012 5.65101C64.069 6.52401 64.21 7.39301 64.249 8.26601C64.322 9.89101 64.357 11.519 64.39 13.146C64.443 15.764 64.491 18.383 64.523 21.002L64.66 33.556C64.67 34.213 64.739 34.869 64.779 35.525Z" fill="#60B24F"/>
<path fill-rule="evenodd" clip-rule="evenodd" d="M62.929 82.642C63.13 81.638 63.395 80.642 63.519 79.627C63.767 77.603 63.938 75.569 64.141 73.54L64.192 73.532L64.242 73.541C64.2942 76.08 64.6518 78.6035 65.307 81.057C65.172 81.235 64.983 81.392 64.911 81.592C64.356 83.158 63.832 84.737 63.274 86.302C63.198 86.516 62.984 86.683 62.835 86.87L62.264 84.91L62.929 82.642Z" fill="#A9AA88"/>
<path fill-rule="evenodd" clip-rule="evenodd" d="M62.835 86.871C62.984 86.683 63.198 86.517 63.274 86.303C63.832 84.738 64.356 83.159 64.911 81.593C64.982 81.393 65.172 81.236 65.307 81.058L66.266 83.162C66.077 83.43 65.815 83.673 65.71 83.972L63.874 89.364C63.798 89.581 63.541 89.733 63.367 89.916L62.835 86.871Z" fill="#B6B598"/>
<path fill-rule="evenodd" clip-rule="evenodd" d="M63.367 89.915C63.54 89.732 63.798 89.58 63.874 89.363L65.71 83.971C65.814 83.672 66.077 83.429 66.266 83.161L67.194 83.952C66.746 84.395 66.497 84.907 66.647 85.554L66.365 86.477C66.237 86.635 66.051 86.773 65.988 86.954C65.347 88.79 64.736 90.636 64.09 92.471C64.008 92.703 63.781 92.886 63.622 93.092L63.367 89.915Z" fill="#C2C1A7"/>
<path fill-rule="evenodd" clip-rule="evenodd" d="M63.621 93.091C63.781 92.885 64.008 92.702 64.089 92.47C64.735 90.635 65.347 88.789 65.987 86.953C66.05 86.772 66.236 86.635 66.364 86.476L65.975 90.712C65.871 90.832 65.721 90.937 65.671 91.076L64.377 94.784C64.286 95.037 64.112 95.263 63.976 95.5C63.855 95.342 63.639 95.189 63.629 95.025C63.591 94.383 63.618 93.736 63.621 93.091Z" fill="#CECDB7"/>
<path fill-rule="evenodd" clip-rule="evenodd" d="M63.977 95.501C64.113 95.264 64.287 95.038 64.378 94.785L65.672 91.077C65.722 90.937 65.873 90.833 65.976 90.713L65.986 93.493L65.055 95.88L63.977 95.501Z" fill="#DBDAC7"/>
<path fill-rule="evenodd" clip-rule="evenodd" d="M65.055 95.88L65.986 93.493L66.178 96.317L65.055 95.88Z" fill="#EBE9DC"/>
<path fill-rule="evenodd" clip-rule="evenodd" d="M66.646 85.554C66.497 84.908 66.745 84.396 67.193 83.952L67.451 84.128L66.646 85.554Z" fill="#CECDB7"/>
<path fill-rule="evenodd" clip-rule="evenodd" d="M64.242 73.542L64.192 73.533L64.141 73.541L64.26 73.114L64.242 73.542Z" fill="#4FAA41"/>
</svg>
