<svg width="128" height="128" viewBox="0 0 128 128" fill="none" xmlns="http://www.w3.org/2000/svg">
<rect width="128" height="128" rx="15" fill="white"/>
<path d="M114.325 80.749C114.035 80.749 113.747 80.673 113.493 80.525L110.843 78.957C110.447 78.736 110.64 78.657 110.771 78.612C111.299 78.428 111.406 78.385 111.969 78.067C112.028 78.034 112.105 78.046 112.166 78.082L114.201 79.291C114.239 79.3112 114.281 79.3218 114.324 79.3218C114.367 79.3218 114.409 79.3112 114.447 79.291L122.384 74.71C122.421 74.688 122.452 74.6565 122.474 74.6188C122.495 74.5811 122.506 74.5384 122.506 74.495V65.335C122.506 65.291 122.495 65.2477 122.473 65.2094C122.452 65.171 122.421 65.1389 122.383 65.116L114.449 60.539C114.411 60.5183 114.369 60.5075 114.326 60.5075C114.284 60.5075 114.242 60.5183 114.204 60.539L106.271 65.117C106.233 65.1397 106.202 65.1717 106.18 65.2098C106.158 65.248 106.147 65.291 106.146 65.335V74.495C106.146 74.583 106.195 74.666 106.271 74.707L108.445 75.964C109.625 76.553 110.348 75.859 110.348 75.161V66.116C110.348 65.989 110.451 65.888 110.578 65.888H111.585C111.71 65.888 111.814 65.989 111.814 66.116V75.161C111.814 76.735 110.957 77.638 109.464 77.638C109.005 77.638 108.644 77.638 107.636 77.142L105.555 75.944C105.302 75.7964 105.092 75.5851 104.946 75.331C104.8 75.0769 104.723 74.789 104.723 74.496V65.336C104.723 64.741 105.04 64.186 105.555 63.89L113.492 59.303C113.748 59.1637 114.034 59.0908 114.325 59.0908C114.617 59.0908 114.903 59.1637 115.159 59.303L123.096 63.89C123.61 64.187 123.929 64.742 123.929 65.336V74.496C123.928 74.789 123.851 75.0769 123.705 75.3309C123.559 75.5849 123.349 75.7963 123.096 75.944L115.159 80.526C114.906 80.673 114.618 80.7499 114.325 80.749ZM116.778 74.438C113.303 74.438 112.576 72.843 112.576 71.506C112.576 71.4452 112.601 71.3869 112.644 71.344C112.687 71.3011 112.745 71.277 112.806 71.277H113.832C113.887 71.2768 113.94 71.2962 113.982 71.3318C114.024 71.3674 114.051 71.4168 114.06 71.471C114.214 72.516 114.677 73.043 116.778 73.043C118.449 73.043 119.161 72.665 119.161 71.777C119.161 71.265 118.959 70.886 116.361 70.631C114.189 70.416 112.846 69.937 112.846 68.198C112.846 66.597 114.196 65.641 116.458 65.641C119.001 65.641 120.259 66.524 120.418 68.418C120.42 68.4499 120.416 68.4819 120.406 68.5122C120.396 68.5424 120.379 68.5703 120.358 68.594C120.336 68.6167 120.31 68.6349 120.281 68.6475C120.253 68.66 120.221 68.6666 120.19 68.667H119.159C119.107 68.6671 119.057 68.6494 119.016 68.6168C118.975 68.5842 118.947 68.5388 118.936 68.488C118.688 67.388 118.088 67.037 116.457 67.037C114.632 67.037 114.42 67.674 114.42 68.149C114.42 68.726 114.67 68.894 117.135 69.22C119.574 69.543 120.733 69.999 120.733 71.714C120.734 73.447 119.292 74.438 116.778 74.438Z" fill="#83CD29"/>
<path d="M97.982 68.43C98.295 68.247 98.488 67.913 98.488 67.55V65.196C98.488 64.834 98.296 64.5 97.982 64.317L89.618 59.461C89.4633 59.3711 89.2877 59.3235 89.1088 59.3232C88.9299 59.3228 88.754 59.3697 88.599 59.459L80.183 64.318C80.0287 64.4073 79.9005 64.5356 79.8114 64.6901C79.7222 64.8445 79.6752 65.0197 79.675 65.198V74.914C79.675 75.279 79.871 75.617 80.189 75.798L88.552 80.563C88.86 80.74 89.238 80.741 89.549 80.569L94.607 77.757C94.6857 77.7133 94.7515 77.6495 94.7974 77.572C94.8434 77.4946 94.8679 77.4063 94.8685 77.3163C94.8691 77.2262 94.8458 77.1376 94.8009 77.0595C94.756 76.9815 94.6911 76.9168 94.613 76.872L86.145 72.012C86.0673 71.9677 86.0027 71.9037 85.9578 71.8265C85.9128 71.7492 85.8891 71.6614 85.889 71.572V68.526C85.889 68.344 85.986 68.177 86.143 68.087L88.78 66.567C88.857 66.5223 88.9445 66.4988 89.0335 66.4988C89.1225 66.4988 89.21 66.5223 89.287 66.567L91.924 68.087C92.0013 68.1313 92.0656 68.1952 92.1104 68.2723C92.1552 68.3494 92.1788 68.4369 92.179 68.526V70.922C92.1785 71.0116 92.2017 71.0997 92.2463 71.1774C92.2909 71.2551 92.3553 71.3196 92.433 71.3643C92.5106 71.409 92.5987 71.4324 92.6883 71.432C92.7779 71.4316 92.8658 71.4074 92.943 71.362L97.982 68.43Z" fill="#404137"/>
<path d="M88.984 67.974C89.0138 67.9573 89.0474 67.9486 89.0815 67.9486C89.1156 67.9486 89.1492 67.9573 89.179 67.974L90.794 68.907C90.854 68.942 90.891 69.007 90.891 69.076V70.941C90.891 71.011 90.854 71.075 90.794 71.11L89.179 72.042C89.1494 72.0592 89.1157 72.0683 89.0815 72.0683C89.0472 72.0683 89.0136 72.0592 88.984 72.042L87.37 71.11C87.3402 71.093 87.3154 71.0684 87.2982 71.0387C87.281 71.009 87.2719 70.9753 87.272 70.941V69.076C87.272 69.007 87.309 68.942 87.37 68.907L88.984 67.974Z" fill="#83CD29"/>
<path d="M67.083 71.854C67.083 71.944 67.035 72.028 66.956 72.074L64.066 73.74C64.0275 73.7626 63.9836 73.7745 63.939 73.7745C63.8943 73.7745 63.8505 73.7626 63.812 73.74L60.922 72.074C60.8834 72.0516 60.8514 72.0195 60.8291 71.9809C60.8069 71.9423 60.7951 71.8986 60.795 71.854V68.516C60.795 68.426 60.844 68.341 60.922 68.295L63.812 66.627C63.8505 66.6039 63.8946 66.5917 63.9395 66.5917C63.9844 66.5917 64.0285 66.6039 64.067 66.627L66.958 68.295C66.9963 68.3178 67.028 68.3502 67.0501 68.3889C67.0722 68.4276 67.0839 68.4714 67.084 68.516L67.083 71.854ZM67.864 47.138C67.7865 47.0957 67.6994 47.0741 67.6111 47.0755C67.5228 47.0769 67.4363 47.1011 67.3602 47.1458C67.284 47.1905 67.2208 47.2542 67.1766 47.3307C67.1324 47.4071 67.1088 47.4937 67.108 47.582V60.497C67.1077 60.5593 67.0913 60.6204 67.0603 60.6744C67.0292 60.7284 66.9847 60.7734 66.931 60.805C66.8768 60.836 66.8154 60.8522 66.753 60.8522C66.6906 60.8522 66.6292 60.836 66.575 60.805L64.467 59.59C64.3126 59.5011 64.1376 59.4543 63.9595 59.4543C63.7814 59.4543 63.6064 59.5011 63.452 59.59L55.034 64.448C54.8793 64.5373 54.7509 64.6657 54.6615 64.8203C54.5722 64.975 54.5251 65.1504 54.525 65.329V75.048C54.525 75.411 54.719 75.746 55.033 75.929L63.451 80.79C63.765 80.972 64.153 80.972 64.468 80.79L72.888 75.929C73.0423 75.8394 73.1705 75.7109 73.2596 75.5563C73.3488 75.4017 73.3958 75.2264 73.396 75.048V50.821C73.396 50.453 73.196 50.113 72.875 49.933L67.864 47.138Z" fill="#404137"/>
<path d="M38.238 59.407C38.3924 59.3176 38.5676 59.2706 38.746 59.2706C38.9244 59.2706 39.0996 59.3176 39.254 59.407L47.672 64.264C47.986 64.446 48.18 64.782 48.18 65.145V74.867C48.18 75.23 47.986 75.566 47.672 75.748L39.255 80.609C39.1003 80.698 38.925 80.7448 38.7465 80.7448C38.568 80.7448 38.3927 80.698 38.238 80.609L29.823 75.748C29.6687 75.6584 29.5405 75.5299 29.4514 75.3753C29.3622 75.2207 29.3152 75.0454 29.315 74.867V65.144C29.315 64.782 29.509 64.446 29.823 64.264L38.238 59.407Z" fill="#83CD29"/>
<path d="M22.93 65.064C22.93 64.698 22.738 64.362 22.422 64.181L14.007 59.338C13.8657 59.2561 13.7063 59.2104 13.543 59.205H13.456C13.2927 59.2105 13.1334 59.2562 12.992 59.338L4.57599 64.181C4.42116 64.2706 4.29263 64.3994 4.20329 64.5544C4.11395 64.7094 4.06695 64.8851 4.06699 65.064L4.08499 78.104C4.08499 78.286 4.17999 78.455 4.33899 78.543C4.41512 78.5892 4.50245 78.6136 4.59149 78.6136C4.68052 78.6136 4.76785 78.5892 4.84399 78.543L9.84399 75.679C10.16 75.491 10.353 75.16 10.353 74.797V68.705C10.353 68.341 10.545 68.006 10.86 67.824L12.99 66.598C13.1439 66.5075 13.3194 66.4602 13.498 66.461C13.672 66.461 13.85 66.505 14.005 66.598L16.133 67.824C16.448 68.006 16.642 68.341 16.642 68.705V74.797C16.642 75.16 16.837 75.493 17.151 75.679L22.151 78.543C22.2281 78.5871 22.3154 78.6101 22.4042 78.6099C22.493 78.6097 22.5802 78.5862 22.6571 78.5418C22.734 78.4974 22.7979 78.4336 22.8424 78.3568C22.887 78.28 22.9106 78.1928 22.911 78.104L22.93 65.064Z" fill="#404137"/>
</svg>
