<svg width="64" height="64" viewBox="0 0 64 64" fill="none" xmlns="http://www.w3.org/2000/svg">
<g clip-path="url(#clip0_2_37)">
<rect width="64" height="64" rx="15" fill="white"/>
<path d="M63.22 25.42L56.387 0L30.87 6.814L27.095 13.451L19.448 13.396L0.779999 32.005L19.45 50.609L27.108 50.552L30.888 57.189L56.388 63.999L63.22 38.581L59.34 32L63.22 25.42ZM47.22 9.52L36.036 28.86H13.644L27.738 14.52L47.22 9.52ZM36.036 35.145L47.232 54.483L27.725 49.471L13.63 35.15H36.022L36.036 35.145ZM41.504 32.005L52.7 12.665L58.113 32.005L52.7 51.34L41.504 32.005Z" fill="#222C37"/>
</g>
<defs>
<clipPath id="clip0_2_37">
<rect width="64" height="64" rx="15" fill="white"/>
</clipPath>
</defs>
</svg>
